#Comment line ignore any data following # character 
#Hierarchical Translation and Rotation (.htr) file 
[Header]	
#Header keywords are followed by a single value 
FileType HTR		#Single word string
DataType HTRS		#Translation followed by rotation and scale data
FileVersion 1		#integer
NumSegments 84		#integer
NumFrames 2		#integer
DataFrameRate 30		#integer, data frame rate in this file
EulerRotationOrder ZYX
CalibrationUnits mm
RotationUnits Degrees
GlobalAxisofGravity Y
BoneLengthAxis Y
ScaleFactor 1.00
[SegmentNames&Hierarchy]
#CHILD	PARENT
MASTER GLOBAL
root MASTER
chest root
L_mid_tent01 root
R_mid_tent01 root
spine01 root
Bip01_Neck chest
L_humerus chest
R_humerus chest
weapon_bone chest
Bip01_Head Bip01_Neck
eye_left_bone Bip01_Head
eye_right_bone Bip01_Head
L_forearm L_humerus
L_front_hand L_forearm
L_weapon_bone L_forearm
L_front_hand01_01 L_front_hand
L_front_hand02_01 L_front_hand
L_front_hand03_01 L_front_hand
L_front_hand01_02 L_front_hand01_01
L_front_hand02_02 L_front_hand02_01
L_front_hand03_02 L_front_hand03_01
R_forearm R_humerus
R_front_hand R_forearm
R_weapon_bone R_forearm
R_front_hand01_01 R_front_hand
R_front_hand02_01 R_front_hand
R_front_hand03_01 R_front_hand
R_front_hand01_02 R_front_hand01_01
R_front_hand02_02 R_front_hand02_01
R_front_hand03_02 R_front_hand03_01
null_rope01_connect L_mid_tent01
Rope1_Seg01 null_rope01_connect
Rope1_Seg02 Rope1_Seg01
Rope1_Seg03 Rope1_Seg02
Rope1_Seg04 Rope1_Seg03
Rope1_Seg05 Rope1_Seg04
Rope1_Seg06 Rope1_Seg05
Rope1_Seg07 Rope1_Seg06
Rope1_Seg09 Rope1_Seg07
L_mid_hand01 Rope1_Seg09
L_mid_hand02 Rope1_Seg09
L_mid_hand03 Rope1_Seg09
null_rope02_connect R_mid_tent01
Rope2_Seg01 null_rope02_connect
Rope2_Seg02 Rope2_Seg01
Rope2_Seg03 Rope2_Seg02
Rope2_Seg04 Rope2_Seg03
Rope2_Seg05 Rope2_Seg04
Rope2_Seg06 Rope2_Seg05
Rope2_Seg07 Rope2_Seg06
Rope2_Seg09 Rope2_Seg07
R_mid_hand01 Rope2_Seg09
R_mid_hand02 Rope2_Seg09
R_mid_hand03 Rope2_Seg09
spine02 spine01
spine03 spine02
pelvis spine03
null_rope03_connect pelvis
null_rope04_connect pelvis
Rope3_Seg01 null_rope03_connect
Rope3_Seg02 Rope3_Seg01
Rope3_Seg03 Rope3_Seg02
Rope3_Seg04 Rope3_Seg03
Rope3_Seg05 Rope3_Seg04
Rope3_Seg06 Rope3_Seg05
Rope3_Seg07 Rope3_Seg06
Rope3_Seg08 Rope3_Seg07
Rope3_Seg09 Rope3_Seg08
R_rear_hand01 Rope3_Seg09
R_rear_hand02 Rope3_Seg09
R_rear_hand03 Rope3_Seg09
Rope4_Seg01 null_rope04_connect
Rope4_Seg02 Rope4_Seg01
Rope4_Seg03 Rope4_Seg02
Rope4_Seg04 Rope4_Seg03
Rope4_Seg05 Rope4_Seg04
Rope4_Seg06 Rope4_Seg05
Rope4_Seg07 Rope4_Seg06
Rope4_Seg08 Rope4_Seg07
Rope4_Seg09 Rope4_Seg08
L_rear_hand01 Rope4_Seg09
L_rear_hand02 Rope4_Seg09
L_rear_hand03 Rope4_Seg09
[BasePosition]
#SegmentName Tx, Ty, Tz, Rx, Ry, Rz, BoneLength
MASTER 0.000000 0.000000 0.000000 -90.000000 0.000000 0.000000 10.000000 
root 0.000000 0.000000 0.000000 0.000000 0.000000 0.000000 10.000000 
chest 0.000000 0.000000 0.000000 0.000000 0.000000 0.000000 10.000000 
L_mid_tent01 0.000000 0.000000 0.000000 0.000000 0.000000 0.000000 10.000000 
R_mid_tent01 0.000000 0.000000 0.000000 0.000000 0.000000 0.000000 10.000000 
spine01 0.000000 0.000000 0.000000 0.000000 0.000000 0.000000 10.000000 
Bip01_Neck 0.000000 0.000000 0.000000 0.000000 0.000000 0.000000 10.000000 
L_humerus 0.000000 0.000000 0.000000 0.000000 0.000000 0.000000 10.000000 
R_humerus 0.000000 0.000000 0.000000 0.000000 0.000000 0.000000 10.000000 
weapon_bone 0.000000 0.000000 0.000000 0.000000 0.000000 0.000000 10.000000 
Bip01_Head 0.000000 0.000000 0.000000 0.000000 0.000000 0.000000 10.000000 
eye_left_bone 0.000000 0.000000 0.000000 0.000000 0.000000 0.000000 10.000000 
eye_right_bone 0.000000 0.000000 0.000000 0.000000 0.000000 0.000000 10.000000 
L_forearm 0.000000 0.000000 0.000000 0.000000 0.000000 0.000000 10.000000 
L_front_hand 0.000000 0.000000 0.000000 0.000000 0.000000 0.000000 10.000000 
L_weapon_bone 0.000000 0.000000 0.000000 0.000000 0.000000 0.000000 10.000000 
L_front_hand01_01 0.000000 0.000000 0.000000 0.000000 0.000000 0.000000 10.000000 
L_front_hand02_01 0.000000 0.000000 0.000000 0.000000 0.000000 0.000000 10.000000 
L_front_hand03_01 0.000000 0.000000 0.000000 0.000000 0.000000 0.000000 10.000000 
L_front_hand01_02 0.000000 0.000000 0.000000 0.000000 0.000000 0.000000 10.000000 
L_front_hand02_02 0.000000 0.000000 0.000000 0.000000 0.000000 0.000000 10.000000 
L_front_hand03_02 0.000000 0.000000 0.000000 0.000000 0.000000 0.000000 10.000000 
R_forearm 0.000000 0.000000 0.000000 0.000000 0.000000 0.000000 10.000000 
R_front_hand 0.000000 0.000000 0.000000 0.000000 0.000000 0.000000 10.000000 
R_weapon_bone 0.000000 0.000000 0.000000 0.000000 0.000000 0.000000 10.000000 
R_front_hand01_01 0.000000 0.000000 0.000000 0.000000 0.000000 0.000000 10.000000 
R_front_hand02_01 0.000000 0.000000 0.000000 0.000000 0.000000 0.000000 10.000000 
R_front_hand03_01 0.000000 0.000000 0.000000 0.000000 0.000000 0.000000 10.000000 
R_front_hand01_02 0.000000 0.000000 0.000000 0.000000 0.000000 0.000000 10.000000 
R_front_hand02_02 0.000000 0.000000 0.000000 0.000000 0.000000 0.000000 10.000000 
R_front_hand03_02 0.000000 0.000000 0.000000 0.000000 0.000000 0.000000 10.000000 
null_rope01_connect 0.000000 0.000000 0.000000 0.000000 0.000000 0.000000 10.000000 
Rope1_Seg01 0.000000 0.000000 0.000000 0.000000 0.000000 0.000000 10.000000 
Rope1_Seg02 0.000000 0.000000 0.000000 0.000000 0.000000 0.000000 10.000000 
Rope1_Seg03 0.000000 0.000000 0.000000 0.000000 0.000000 0.000000 10.000000 
Rope1_Seg04 0.000000 0.000000 0.000000 0.000000 0.000000 0.000000 10.000000 
Rope1_Seg05 0.000000 0.000000 0.000000 0.000000 0.000000 0.000000 10.000000 
Rope1_Seg06 0.000000 0.000000 0.000000 0.000000 0.000000 0.000000 10.000000 
Rope1_Seg07 0.000000 0.000000 0.000000 0.000000 0.000000 0.000000 10.000000 
Rope1_Seg09 0.000000 0.000000 0.000000 0.000000 0.000000 0.000000 10.000000 
L_mid_hand01 0.000000 0.000000 0.000000 0.000000 0.000000 0.000000 10.000000 
L_mid_hand02 0.000000 0.000000 0.000000 0.000000 0.000000 0.000000 10.000000 
L_mid_hand03 0.000000 0.000000 0.000000 0.000000 0.000000 0.000000 10.000000 
null_rope02_connect 0.000000 0.000000 0.000000 0.000000 0.000000 0.000000 10.000000 
Rope2_Seg01 0.000000 0.000000 0.000000 0.000000 0.000000 0.000000 10.000000 
Rope2_Seg02 0.000000 0.000000 0.000000 0.000000 0.000000 0.000000 10.000000 
Rope2_Seg03 0.000000 0.000000 0.000000 0.000000 0.000000 0.000000 10.000000 
Rope2_Seg04 0.000000 0.000000 0.000000 0.000000 0.000000 0.000000 10.000000 
Rope2_Seg05 0.000000 0.000000 0.000000 0.000000 0.000000 0.000000 10.000000 
Rope2_Seg06 0.000000 0.000000 0.000000 0.000000 0.000000 0.000000 10.000000 
Rope2_Seg07 0.000000 0.000000 0.000000 0.000000 0.000000 0.000000 10.000000 
Rope2_Seg09 0.000000 0.000000 0.000000 0.000000 0.000000 0.000000 10.000000 
R_mid_hand01 0.000000 0.000000 0.000000 0.000000 0.000000 0.000000 10.000000 
R_mid_hand02 0.000000 0.000000 0.000000 0.000000 0.000000 0.000000 10.000000 
R_mid_hand03 0.000000 0.000000 0.000000 0.000000 0.000000 0.000000 10.000000 
spine02 0.000000 0.000000 0.000000 0.000000 0.000000 0.000000 10.000000 
spine03 0.000000 0.000000 0.000000 0.000000 0.000000 0.000000 10.000000 
pelvis 0.000000 0.000000 0.000000 0.000000 0.000000 0.000000 10.000000 
null_rope03_connect 0.000000 0.000000 0.000000 0.000000 0.000000 0.000000 10.000000 
null_rope04_connect 0.000000 0.000000 0.000000 0.000000 0.000000 0.000000 10.000000 
Rope3_Seg01 0.000000 0.000000 0.000000 0.000000 0.000000 0.000000 10.000000 
Rope3_Seg02 0.000000 0.000000 0.000000 0.000000 0.000000 0.000000 10.000000 
Rope3_Seg03 0.000000 0.000000 0.000000 0.000000 0.000000 0.000000 10.000000 
Rope3_Seg04 0.000000 0.000000 0.000000 0.000000 0.000000 0.000000 10.000000 
Rope3_Seg05 0.000000 0.000000 0.000000 0.000000 0.000000 0.000000 10.000000 
Rope3_Seg06 0.000000 0.000000 0.000000 0.000000 0.000000 0.000000 10.000000 
Rope3_Seg07 0.000000 0.000000 0.000000 0.000000 0.000000 0.000000 10.000000 
Rope3_Seg08 0.000000 0.000000 0.000000 0.000000 0.000000 0.000000 10.000000 
Rope3_Seg09 0.000000 0.000000 0.000000 0.000000 0.000000 0.000000 10.000000 
R_rear_hand01 0.000000 0.000000 0.000000 0.000000 0.000000 0.000000 10.000000 
R_rear_hand02 0.000000 0.000000 0.000000 0.000000 0.000000 0.000000 10.000000 
R_rear_hand03 0.000000 0.000000 0.000000 0.000000 0.000000 0.000000 10.000000 
Rope4_Seg01 0.000000 0.000000 0.000000 0.000000 0.000000 0.000000 10.000000 
Rope4_Seg02 0.000000 0.000000 0.000000 0.000000 0.000000 0.000000 10.000000 
Rope4_Seg03 0.000000 0.000000 0.000000 0.000000 0.000000 0.000000 10.000000 
Rope4_Seg04 0.000000 0.000000 0.000000 0.000000 0.000000 0.000000 10.000000 
Rope4_Seg05 0.000000 0.000000 0.000000 0.000000 0.000000 0.000000 10.000000 
Rope4_Seg06 0.000000 0.000000 0.000000 0.000000 0.000000 0.000000 10.000000 
Rope4_Seg07 0.000000 0.000000 0.000000 0.000000 0.000000 0.000000 10.000000 
Rope4_Seg08 0.000000 0.000000 0.000000 0.000000 0.000000 0.000000 10.000000 
Rope4_Seg09 0.000000 0.000000 0.000000 0.000000 0.000000 0.000000 10.000000 
L_rear_hand01 0.000000 0.000000 0.000000 0.000000 0.000000 0.000000 10.000000 
L_rear_hand02 0.000000 0.000000 0.000000 0.000000 0.000000 0.000000 10.000000 
L_rear_hand03 0.000000 0.000000 0.000000 0.000000 0.000000 0.000000 10.000000 
#Beginning of Data. Separated by tabs
#Fr	Tx	Ty	Tz	Rx	Ry	Rz	SF
[MASTER]
23 0.000000 0.000000 0.000000 0.001660 0.001660 0.001660 0.000000
24 0.000000 0.000000 0.000000 0.001660 0.001660 0.001660 0.000000
[root]
23 -18.952570 -61.512951 1438.181641 -85.696762 -23.306097 -91.749321 1439.621338
24 -17.666618 -62.200031 1469.472412 -89.113663 -25.544844 -90.307556 1470.894287
[chest]
23 -84.512650 -34.090519 0.000000 -2.464972 -1.986541 -173.216446 91.129311
24 -84.512650 -34.090519 0.000000 -2.520491 -1.786331 -174.215942 91.129311
[L_mid_tent01]
23 27.299139 22.178997 -249.918640 -1.147542 34.951542 71.385521 252.381622
24 27.299133 22.179010 -249.918655 -5.727248 32.999901 61.780037 252.381638
[R_mid_tent01]
23 23.228794 24.509907 226.238495 167.588715 -45.523319 77.419998 228.744751
24 23.228794 24.509907 226.238495 174.040482 -43.126923 67.583450 228.744751
[spine01]
23 -0.361383 -0.195265 0.000000 0.001840 0.001458 13.206185 0.410763
24 -0.361383 -0.195265 0.000000 0.001844 0.001452 13.554759 0.410763
[Bip01_Neck]
23 165.484543 71.581718 0.000119 176.643677 -1.657967 43.431911 180.302734
24 165.484543 71.581718 0.000119 176.643677 -1.657967 43.431911 180.302734
[L_humerus]
23 -13.983130 -135.272980 -120.471481 167.834839 45.420063 -87.009941 181.680161
24 -13.983130 -135.272980 -120.471481 166.104279 54.144844 -94.104904 181.680161
[R_humerus]
23 -13.983309 -135.273102 125.287651 -175.039474 -41.614792 -89.058769 184.909012
24 -13.983309 -135.273102 125.287651 -174.003204 -50.085831 -90.478561 184.909012
[weapon_bone]
23 235.964890 -300.705902 0.000000 0.000000 -89.951546 -128.212341 382.234833
24 235.964890 -300.705902 0.000000 0.000000 -89.951546 -128.212341 382.234833
[Bip01_Head]
23 213.444336 185.715652 11.776960 4.962490 2.797846 -43.898743 283.173950
24 213.444305 185.715591 11.776958 4.962490 2.797846 -43.898743 283.173889
[eye_left_bone]
23 -24.626970 125.451866 -64.772606 0.000000 -90.000000 -99.840431 143.318359
24 -24.626970 125.451866 -64.772606 0.000000 -90.000000 -99.840431 143.318359
[eye_right_bone]
23 -24.626970 125.451866 64.327362 0.000000 -89.965736 80.156380 143.117676
24 -24.626970 125.451866 64.327362 0.000000 -89.965736 80.156380 143.117676
[L_forearm]
23 322.776093 0.000000 -0.000119 0.000131 -0.002344 -96.399292 322.776093
24 322.776093 0.000000 -0.000119 0.000155 -0.002342 -97.574837 322.776093
[L_front_hand]
23 241.149185 -0.042021 -3.300071 -178.667953 -1.835447 -27.422350 241.171753
24 241.149185 -0.042021 -3.300071 -178.667953 -1.835447 -27.422350 241.171753
[L_weapon_bone]
23 156.183838 0.000000 0.000000 0.000014 0.000007 0.000001 156.183838
24 156.183838 0.000000 0.000000 0.000014 0.000007 0.000001 156.183838
[L_front_hand01_01]
23 86.095154 20.947098 -0.655860 -0.366594 -0.477154 75.385574 88.609184
24 86.095154 20.947098 -0.655860 -0.366594 -0.477154 75.385574 88.609184
[L_front_hand02_01]
23 86.935165 -11.437475 24.513514 154.399796 -59.883835 -61.369587 91.046425
24 86.935165 -11.437475 24.513514 154.399796 -59.883835 -61.369587 91.046425
[L_front_hand03_01]
23 86.637497 -14.123976 -20.424902 -153.913849 58.118122 -62.702866 90.126129
24 86.637497 -14.123976 -20.424902 -153.913879 58.118130 -62.702892 90.126129
[L_front_hand01_02]
23 71.020905 -0.000179 0.000030 0.000334 -0.002323 -106.379684 71.020905
24 71.020905 -0.000179 0.000030 0.000334 -0.002323 -106.379684 71.020905
[L_front_hand02_02]
23 71.020927 -0.000119 0.000060 0.000334 -0.002323 -106.379684 71.020927
24 71.020927 -0.000119 0.000060 0.000334 -0.002323 -106.379684 71.020927
[L_front_hand03_02]
23 71.020905 -0.000060 0.000060 0.000334 -0.002323 -106.379684 71.020905
24 71.020905 -0.000060 0.000060 0.000334 -0.002323 -106.379684 71.020905
[R_forearm]
23 322.776428 -0.000060 0.000030 0.212779 0.017312 -94.931076 322.776428
24 322.776428 -0.000060 0.000030 0.212588 0.019519 -96.120155 322.776428
[R_front_hand]
23 238.847015 -0.006795 2.210259 -2.635298 -10.645461 -26.312506 238.857239
24 238.847015 -0.006795 2.210259 -2.635298 -10.645461 -26.312506 238.857239
[R_weapon_bone]
23 155.664093 0.002503 -0.000030 0.003487 0.001180 -90.988930 155.664078
24 155.664093 0.002503 -0.000030 0.003487 0.001180 -90.988930 155.664078
[R_front_hand01_01]
23 87.624611 14.231146 22.918642 -154.633514 -59.950634 61.746063 91.683487
24 87.624611 14.231146 22.918642 -154.633499 -59.950619 61.746044 91.683487
[R_front_hand02_01]
23 89.356956 14.367283 -19.491137 154.602661 58.302849 63.744389 92.579636
24 89.356956 14.367283 -19.491137 154.602661 58.302849 63.744389 92.579636
[R_front_hand03_01]
23 87.286232 -22.307278 -0.143439 0.162155 -0.423168 -75.767921 90.091743
24 87.286232 -22.307278 -0.143439 0.162155 -0.423168 -75.767906 90.091743
[R_front_hand01_02]
23 71.020905 0.000060 0.000119 0.002323 -0.000334 106.381714 71.020905
24 71.020905 0.000060 0.000119 0.002323 -0.000334 106.381714 71.020905
[R_front_hand02_02]
23 71.020844 -0.000030 -0.000119 0.002323 -0.000334 106.381714 71.020836
24 71.020844 -0.000030 -0.000119 0.002323 -0.000334 106.381714 71.020836
[R_front_hand03_02]
23 71.020905 0.000000 0.000030 0.002323 -0.000334 106.381714 71.020905
24 71.020905 0.000000 0.000030 0.002323 -0.000334 106.381714 71.020905
[null_rope01_connect]
23 328.732483 0.000000 -0.000238 -135.979691 -57.944141 176.793503 328.732483
24 328.732483 0.000000 -0.000238 -135.899933 -57.190876 -172.177734 328.732483
[Rope1_Seg01]
23 -0.000038 -0.000114 0.000110 113.525429 0.263446 159.466324 0.000163
24 -0.000038 -0.000114 0.000110 111.408020 -8.034069 165.412704 0.000164
[Rope1_Seg02]
23 139.999863 -0.000179 0.000000 2.328254 -6.397754 -8.722572 139.999863
24 139.999863 -0.000179 0.000000 3.890023 -3.421518 -15.108596 139.999863
[Rope1_Seg03]
23 139.999924 0.000060 -0.000060 3.203213 -3.333071 -12.624462 139.999924
24 139.999924 0.000060 -0.000060 7.417755 -2.349970 -18.731892 139.999924
[Rope1_Seg04]
23 139.999924 -0.000060 -0.000119 1.584681 -10.161565 1.072438 139.999924
24 139.999924 -0.000060 -0.000119 0.429211 -13.574518 9.529549 139.999924
[Rope1_Seg05]
23 139.999832 0.000119 -0.000060 -0.575329 -8.284752 8.500629 139.999832
24 139.999832 0.000119 -0.000060 -0.148889 -6.094328 5.618257 139.999832
[Rope1_Seg06]
23 139.999954 0.000119 -0.000060 -0.141784 -3.473459 2.445486 139.999954
24 139.999954 0.000119 -0.000060 0.007764 -3.075617 2.168566 139.999954
[Rope1_Seg07]
23 139.999985 0.000060 0.000000 -0.099693 -2.133906 1.457839 139.999985
24 139.999985 0.000060 0.000000 -0.005732 -1.897622 1.342244 139.999985
[Rope1_Seg09]
23 121.602913 0.000119 -0.000089 -89.793175 -1.359789 0.847147 121.602913
24 121.602913 0.000119 -0.000089 -89.793175 -1.359789 0.847147 121.602913
[L_mid_hand01]
23 103.859421 1.038730 8.195221 130.544373 -67.584534 -38.866943 104.187431
24 103.859421 1.038730 8.195221 130.544373 -67.584534 -38.866943 104.187431
[L_mid_hand02]
23 105.572853 -4.139662 -10.864139 -168.923172 43.409309 -73.498886 106.211075
24 105.572853 -4.139662 -10.864139 -168.923172 43.409309 -73.498886 106.211075
[L_mid_hand03]
23 104.641464 17.579376 -3.913581 -6.012627 17.808174 74.893669 106.179977
24 104.641464 17.579376 -3.913581 -6.012627 17.808174 74.893669 106.179977
[null_rope02_connect]
23 328.732849 0.000179 -0.000119 -129.725159 40.765041 7.702020 328.732849
24 328.732849 0.000179 -0.000119 -124.003960 46.033443 5.433118 328.732849
[Rope2_Seg01]
23 0.000068 0.000110 0.000000 -50.679531 31.300528 44.995407 0.000130
24 0.000075 0.000111 0.000000 -50.903965 31.301729 44.519459 0.000134
[Rope2_Seg02]
23 139.999741 -0.000060 -0.000119 -0.332844 -5.952885 3.763644 139.999756
24 139.999741 -0.000060 -0.000119 -0.427798 -5.438725 4.137410 139.999756
[Rope2_Seg03]
23 140.000107 0.000030 0.000000 -0.964216 -15.581627 6.941628 140.000107
24 140.000107 0.000030 0.000000 -2.344934 -24.515030 9.516460 140.000107
[Rope2_Seg04]
23 139.999802 0.000000 -0.000060 -3.891743 -25.416512 7.544131 139.999802
24 139.999802 0.000000 -0.000060 66.245110 40.626598 152.067230 139.999802
[Rope2_Seg05]
23 139.999985 -0.000060 0.000119 80.489044 33.430038 147.055618 139.999985
24 139.999985 -0.000060 0.000119 -17.005474 12.542020 16.752104 139.999985
[Rope2_Seg06]
23 139.999893 -0.000030 -0.000119 -19.659273 15.211977 15.556425 139.999893
24 139.999893 -0.000030 -0.000119 -0.828629 0.077453 0.906190 139.999893
[Rope2_Seg07]
23 139.999893 0.000060 -0.000060 -1.665689 0.340273 1.515244 139.999893
24 139.999893 0.000060 -0.000060 -0.497680 0.038565 0.525741 139.999893
[Rope2_Seg09]
23 121.338966 0.000089 -0.000060 33.793236 -1.359788 -0.847141 121.338966
24 121.338966 0.000089 -0.000060 33.793236 -1.359788 -0.847141 121.338966
[R_mid_hand01]
23 104.680779 11.144459 -10.335981 -16.212063 45.237247 70.462852 105.778534
24 104.680779 11.144459 -10.335981 -16.212063 45.237247 70.462852 105.778534
[R_mid_hand02]
23 104.070427 2.443552 8.231699 49.067368 -67.749771 39.286453 104.424065
24 104.070427 2.443552 8.231699 49.067387 -67.749794 39.286469 104.424065
[R_mid_hand03]
23 106.028137 -11.221827 -5.996406 -177.101105 15.551026 -76.585571 106.788818
24 106.028137 -11.221827 -5.996406 -177.101105 15.551026 -76.585571 106.788818
[spine02]
23 129.756927 0.001550 0.000119 -0.965443 -3.945888 5.916662 129.756927
24 129.756927 0.001550 0.000119 -0.847700 -3.971847 4.213699 129.756927
[spine03]
23 78.613968 0.082187 -4.898957 1.079476 4.135799 4.743639 78.766502
24 78.613983 0.082108 -4.898962 1.157094 4.118689 5.806502 78.766518
[pelvis]
23 169.435242 0.051022 0.000000 0.017736 -0.190408 -9.648917 169.435257
24 169.435242 0.051022 0.000000 0.009222 -0.191031 -7.496406 169.435257
[null_rope03_connect]
23 -1.257226 -2.466202 137.391083 -2.106427 -86.270020 101.324173 137.418976
24 -1.257226 -2.466202 137.391083 0.914672 -89.299194 98.631447 137.418976
[null_rope04_connect]
23 -1.259640 -2.480268 -137.844437 -2.106427 -86.270020 101.324173 137.872513
24 -1.259640 -2.480268 -137.844437 0.914672 -89.299194 98.631447 137.872513
[Rope3_Seg01]
23 -0.000022 0.000020 0.000074 -131.078278 -23.250319 -79.879906 0.000079
24 -0.000023 0.000022 0.000063 -130.384399 -17.807869 -81.097900 0.000071
[Rope3_Seg02]
23 139.999924 -0.000119 0.000060 -19.256393 13.526162 -46.017117 139.999924
24 139.999924 -0.000119 0.000060 -14.639254 9.376257 -44.264736 139.999924
[Rope3_Seg03]
23 139.999924 -0.000119 0.000119 -48.316013 26.083164 -47.067059 139.999924
24 139.999924 -0.000119 0.000119 -61.365330 22.737211 -58.857693 139.999924
[Rope3_Seg04]
23 139.999924 0.000119 0.000000 -12.237139 16.056805 -7.433880 139.999924
24 139.999924 0.000119 0.000000 -20.075247 23.757299 -11.360641 139.999924
[Rope3_Seg05]
23 139.999924 -0.000238 0.000060 -16.731701 31.937664 -10.529186 139.999924
24 139.999924 -0.000238 0.000060 -18.413095 47.653839 -10.377144 139.999924
[Rope3_Seg06]
23 139.999893 -0.000119 -0.000060 -3.594812 25.551195 -1.209395 139.999893
24 139.999893 -0.000119 -0.000060 1.000253 17.610407 1.793262 139.999893
[Rope3_Seg07]
23 139.999771 0.000060 -0.000119 0.559541 10.107848 0.244792 139.999771
24 139.999771 0.000060 -0.000119 1.496776 7.447232 0.659170 139.999771
[Rope3_Seg08]
23 139.999985 -0.000060 0.000000 0.866274 4.997965 0.074126 139.999985
24 139.999985 -0.000060 0.000000 1.191553 3.650005 0.227672 139.999985
[Rope3_Seg09]
23 90.185997 -0.000179 -0.000060 89.793228 -1.359877 -0.847183 90.185997
24 90.185997 -0.000179 -0.000060 89.793228 -1.359877 -0.847183 90.185997
[R_rear_hand01]
23 103.366196 -6.073594 -10.757982 -177.714203 24.565960 -73.910950 104.101845
24 103.366196 -6.073594 -10.757982 -177.714203 24.565960 -73.910950 104.101845
[R_rear_hand02]
23 100.509819 12.039542 -7.992327 -12.874829 36.868488 72.167213 101.543350
24 100.509819 12.039542 -7.992327 -12.874829 36.868488 72.167213 101.543350
[R_rear_hand03]
23 101.539970 5.215704 5.435467 71.484581 -71.816628 21.513813 101.819031
24 101.539970 5.215704 5.435467 71.484581 -71.816628 21.513813 101.819031
[Rope4_Seg01]
23 0.000012 -0.000038 -0.000263 70.989876 -41.164391 -130.230499 0.000266
24 0.000012 -0.000038 -0.000247 65.568504 -35.527832 -126.955093 0.000250
[Rope4_Seg02]
23 139.999985 0.000060 0.000119 -18.658878 28.650066 -24.891167 139.999985
24 139.999985 0.000060 0.000119 -12.843914 28.736130 -17.242502 139.999985
[Rope4_Seg03]
23 139.999924 0.000000 -0.000238 1.892936 44.608418 -5.340621 139.999924
24 139.999924 0.000000 -0.000238 3.850912 41.069698 -0.399384 139.999924
[Rope4_Seg04]
23 139.999985 0.000000 0.000119 7.066997 -2.049461 -18.751745 139.999985
24 139.999985 0.000000 0.000119 6.448845 2.749828 -12.718595 139.999985
[Rope4_Seg05]
23 139.999802 -0.000060 -0.000119 6.228435 -24.087292 -27.431234 139.999802
24 139.999802 -0.000060 -0.000119 7.830077 -24.740366 -26.273354 139.999802
[Rope4_Seg06]
23 139.999924 0.000000 0.000060 -1.437089 -7.912796 -9.603207 139.999924
24 139.999924 0.000000 0.000060 -0.229051 -11.858440 -11.549839 139.999924
[Rope4_Seg07]
23 139.999802 0.000000 0.000000 -1.453096 -3.251964 -4.748219 139.999802
24 139.999802 0.000000 0.000000 -1.118982 -4.367113 -5.169311 139.999802
[Rope4_Seg08]
23 139.999924 0.000000 0.000119 -2.546694 -1.709845 -2.642098 139.999924
24 139.999924 0.000000 0.000119 -2.390779 -2.299440 -2.845099 139.999924
[Rope4_Seg09]
23 90.185791 0.000060 0.000060 -135.617828 2.228885 0.850567 90.185791
24 90.185791 0.000060 0.000060 -135.617828 2.228885 0.850567 90.185791
[L_rear_hand01]
23 101.696655 -8.392275 -7.654577 -12.874829 -36.868488 107.832764 102.329041
24 101.696655 -8.392275 -7.654577 -12.874829 -36.868488 107.832764 102.329041
[L_rear_hand02]
23 102.726799 -1.568258 5.773216 71.484581 71.816628 158.486160 102.900848
24 102.726799 -1.568258 5.773216 71.484581 71.816628 158.486160 102.900848
[L_rear_hand03]
23 104.552910 9.721220 -10.420293 -177.714203 -24.565960 -106.089035 105.519653
24 104.552910 9.721220 -10.420293 -177.714203 -24.565960 -106.089035 105.519653
